<svg width="46" height="46" viewBox="0 0 46 46" fill="none" xmlns="http://www.w3.org/2000/svg">
<path fill-rule="evenodd" clip-rule="evenodd" d="M8.07501 5.7376C6.58952 5.7376 5.73751 6.77841 5.73751 7.6501V9.5626H40.1625V7.6501C40.1625 6.77841 39.3105 5.7376 37.825 5.7376H8.07501ZM43.9875 7.6501C43.9875 4.29681 41.0339 1.9126 37.825 1.9126H8.07501C4.86608 1.9126 1.91251 4.29681 1.91251 7.6501V38.2501C1.91251 41.6034 4.86608 43.9876 8.07501 43.9876H37.825C41.0339 43.9876 43.9875 41.6034 43.9875 38.2501V7.6501ZM40.1625 13.3876H5.73751V38.2501C5.73751 39.1218 6.58952 40.1626 8.07501 40.1626H37.825C39.3105 40.1626 40.1625 39.1218 40.1625 38.2501V13.3876Z" fill="#3C3C3C"/>
<path d="M9.5625 25.8188C9.5625 25.2907 9.99063 24.8625 10.5188 24.8625H12.4313C12.9594 24.8625 13.3875 25.2907 13.3875 25.8188V27.7313C13.3875 28.2594 12.9594 28.6875 12.4313 28.6875H10.5188C9.99063 28.6875 9.5625 28.2594 9.5625 27.7313V25.8188Z" fill="#3C3C3C"/>
<path d="M17.2125 25.8188C17.2125 25.2907 17.6407 24.8625 18.1688 24.8625H20.0813C20.6094 24.8625 21.0375 25.2907 21.0375 25.8188V27.7313C21.0375 28.2594 20.6094 28.6875 20.0813 28.6875H18.1688C17.6407 28.6875 17.2125 28.2594 17.2125 27.7313V25.8188Z" fill="#3C3C3C"/>
<path d="M24.8625 25.8188C24.8625 25.2907 25.2906 24.8625 25.8187 24.8625H27.7312C28.2594 24.8625 28.6875 25.2907 28.6875 25.8188V27.7313C28.6875 28.2594 28.2594 28.6875 27.7312 28.6875H25.8187C25.2906 28.6875 24.8625 28.2594 24.8625 27.7313V25.8188Z" fill="#3C3C3C"/>
<path d="M32.5125 25.8188C32.5125 25.2907 32.9406 24.8625 33.4688 24.8625H35.3813C35.9094 24.8625 36.3375 25.2907 36.3375 25.8188V27.7313C36.3375 28.2594 35.9094 28.6875 35.3813 28.6875H33.4688C32.9406 28.6875 32.5125 28.2594 32.5125 27.7313V25.8188Z" fill="#3C3C3C"/>
<path d="M9.5625 18.1687C9.5625 17.6405 9.99063 17.2124 10.5188 17.2124H12.4313C12.9594 17.2124 13.3875 17.6405 13.3875 18.1687V20.0812C13.3875 20.6093 12.9594 21.0374 12.4313 21.0374H10.5188C9.99063 21.0374 9.5625 20.6093 9.5625 20.0812V18.1687Z" fill="#3C3C3C"/>
<path d="M17.2125 18.1687C17.2125 17.6405 17.6407 17.2124 18.1688 17.2124H20.0813C20.6094 17.2124 21.0375 17.6405 21.0375 18.1687V20.0812C21.0375 20.6093 20.6094 21.0374 20.0813 21.0374H18.1688C17.6407 21.0374 17.2125 20.6093 17.2125 20.0812V18.1687Z" fill="#3C3C3C"/>
<path d="M24.8625 18.1687C24.8625 17.6405 25.2906 17.2124 25.8187 17.2124H27.7312C28.2594 17.2124 28.6875 17.6405 28.6875 18.1687V20.0812C28.6875 20.6093 28.2594 21.0374 27.7312 21.0374H25.8187C25.2906 21.0374 24.8625 20.6093 24.8625 20.0812V18.1687Z" fill="#3C3C3C"/>
<path d="M32.5125 18.1687C32.5125 17.6405 32.9406 17.2124 33.4688 17.2124H35.3813C35.9094 17.2124 36.3375 17.6405 36.3375 18.1687V20.0812C36.3375 20.6093 35.9094 21.0374 35.3813 21.0374H33.4688C32.9406 21.0374 32.5125 20.6093 32.5125 20.0812V18.1687Z" fill="#3C3C3C"/>
<path d="M9.5625 33.4687C9.5625 32.9406 9.99063 32.5125 10.5188 32.5125H12.4313C12.9594 32.5125 13.3875 32.9406 13.3875 33.4687V35.3812C13.3875 35.9093 12.9594 36.3375 12.4313 36.3375H10.5188C9.99063 36.3375 9.5625 35.9093 9.5625 35.3812V33.4687Z" fill="#3C3C3C"/>
<path d="M17.2125 33.4687C17.2125 32.9406 17.6407 32.5125 18.1688 32.5125H20.0813C20.6094 32.5125 21.0375 32.9406 21.0375 33.4687V35.3812C21.0375 35.9093 20.6094 36.3375 20.0813 36.3375H18.1688C17.6407 36.3375 17.2125 35.9093 17.2125 35.3812V33.4687Z" fill="#3C3C3C"/>
<path d="M24.8625 33.4687C24.8625 32.9406 25.2906 32.5125 25.8187 32.5125H27.7312C28.2594 32.5125 28.6875 32.9406 28.6875 33.4687V35.3812C28.6875 35.9093 28.2594 36.3375 27.7312 36.3375H25.8187C25.2906 36.3375 24.8625 35.9093 24.8625 35.3812V33.4687Z" fill="#3C3C3C"/>
<path d="M32.5125 33.4687C32.5125 32.9406 32.9406 32.5125 33.4688 32.5125H35.3813C35.9094 32.5125 36.3375 32.9406 36.3375 33.4687V35.3812C36.3375 35.9093 35.9094 36.3375 35.3813 36.3375H33.4688C32.9406 36.3375 32.5125 35.9093 32.5125 35.3812V33.4687Z" fill="#3C3C3C"/>
</svg>
